<?xml version="1.0" encoding="utf-8"?>
<!-- Generator: Adobe Illustrator 16.0.0, SVG Export Plug-In . SVG Version: 6.00 Build 0)  -->
<!DOCTYPE svg PUBLIC "-//W3C//DTD SVG 1.1//EN" "http://www.w3.org/Graphics/SVG/1.1/DTD/svg11.dtd">
<svg version="1.1" xmlns="http://www.w3.org/2000/svg" xmlns:xlink="http://www.w3.org/1999/xlink" x="0px" y="0px" width="600px"
	 height="400px" viewBox="0 0 600 400" enable-background="new 0 0 600 400" xml:space="preserve">
<g id="Layer_3" display="none">
	<g id="Layer_2_copy" display="inline">
		<g>
			<path fill-rule="evenodd" clip-rule="evenodd" fill="#F36C27" d="M572.505,167.142c4.557,58.447-17.817,112.161-74.021,148.019
				c-55.739,35.558-113.576,33.894-170.102,0.202c-13.286-7.923-24.81-18.766-37.417-27.89c-5.853-4.234-12.029-8.324-18.63-11.153
				c-15.699-6.723-30.605-3.294-44.417,5.69c-11.747,7.64-22.925,16.18-34.857,23.508c-63.404,38.938-142.72,2.498-154.533-70.815
				c-10.036-62.288,44.096-120.565,107.336-113.936c17.754,1.862,34.954,9.089,52.379,13.947c3.995,1.114,7.824,2.84,11.83,3.895
				c22.576,5.947,39.307-0.428,52.787-19.629c10.283-14.645,19.806-29.989,31.437-43.498c63.915-74.231,182.487-70.967,243.13,5.878
				C555.784,104.624,567.008,130.57,572.505,167.142z"/>
		</g>
	</g>
</g>
<g id="Layer_2" display="none">
	<g display="inline">
		<path fill-rule="evenodd" clip-rule="evenodd" fill="#07737C" d="M571.066,236.29c-10.484,57.679-45.806,103.92-109.29,124.275
			c-62.959,20.184-118.463,3.839-164.54-43.142c-10.829-11.047-19.21-24.468-29.077-36.503c-4.581-5.585-9.511-11.113-15.173-15.531
			c-13.469-10.501-28.756-10.982-44.401-5.813c-13.305,4.395-26.291,9.805-39.696,13.852
			c-71.232,21.5-138.647-33.946-131.391-107.85c6.164-62.789,73.358-105.352,132.822-82.83
			c16.694,6.324,31.484,17.694,47.098,26.832c3.58,2.095,6.842,4.74,10.447,6.78c20.315,11.502,38.119,9.601,56.046-5.532
			c13.675-11.542,26.792-23.954,41.481-34.054c80.718-55.498,194.546-22.132,233.608,67.627
			C570.825,171.575,575.068,199.524,571.066,236.29z"/>
	</g>
</g>
<g id="Layer_2_copy_2" display="none">
	<g display="inline">
		<path fill-rule="evenodd" clip-rule="evenodd" fill="#07737C" d="M571.066,236.29c-10.484,57.679-45.806,103.92-109.29,124.275
			c-62.959,20.184-118.463,3.839-164.54-43.142c-10.829-11.047-19.21-24.468-29.077-36.503c-4.581-5.585-9.511-11.113-15.173-15.531
			c-13.469-10.501-28.756-10.982-44.401-5.813c-13.305,4.395-26.291,9.805-39.696,13.852
			c-71.232,21.5-138.647-33.946-131.391-107.85c6.164-62.789,73.358-105.352,132.822-82.83
			c16.694,6.324,31.484,17.694,47.098,26.832c3.58,2.095,6.842,4.74,10.447,6.78c20.315,11.502,38.119,9.601,56.046-5.532
			c13.675-11.542,26.792-23.954,41.481-34.054c80.718-55.498,194.546-22.132,233.608,67.627
			C570.825,171.575,575.068,199.524,571.066,236.29z"/>
	</g>
</g>
<g id="Layer_1">
	<g>
		<g>
			<path fill-rule="evenodd" clip-rule="evenodd" fill="#00A7C0" d="M589.558,195.359c-3.639,63.665-35.611,118.29-101.437,148.719
				c-65.282,30.172-127.379,19.919-183.378-24.666c-13.164-10.481-23.998-23.856-36.253-35.534
				c-5.689-5.419-11.748-10.731-18.449-14.746c-15.938-9.543-32.506-8.028-48.708-0.364c-13.779,6.516-27.078,14.087-41.011,20.24
				c-74.038,32.695-154.2-18.186-156.209-98.935C2.408,121.465,69.281,66.567,136.477,82.963
				c18.864,4.604,36.346,14.91,54.419,22.695c4.143,1.785,8.017,4.206,12.181,5.929c23.464,9.712,42.431,5.289,59.769-13.436
				c13.227-14.281,25.735-29.428,40.248-42.288c79.752-70.662,207.08-49.799,261.204,41.902
				C580.68,125.525,588.983,155.135,589.558,195.359z"/>
		</g>
	</g>
</g>
<g id="Layer_1_copy">
	<g>
		<g>
			<path fill-rule="evenodd" clip-rule="evenodd" fill="#008B99" d="M562.014,194.768c-3.371,58.916-32.951,109.444-93.854,137.604
				c-60.389,27.915-117.86,18.427-169.672-22.823c-12.177-9.681-22.202-22.065-33.54-32.88c-5.26-5.003-10.869-9.928-17.062-13.642
				c-14.757-8.82-30.086-7.429-45.072-0.327c-12.752,6.017-25.049,13.022-37.951,18.714
				c-68.502,30.255-142.667-16.822-144.524-91.528c-1.58-63.479,60.296-114.273,122.469-99.103
				c17.454,4.256,33.63,13.788,50.345,20.994c3.837,1.656,7.416,3.894,11.276,5.484c21.711,8.99,39.252,4.9,55.301-12.432
				c12.238-13.213,23.812-27.228,37.235-39.125c73.803-65.377,191.606-46.073,241.674,38.777
				C553.813,130.165,561.482,157.555,562.014,194.768z"/>
		</g>
	</g>
</g>
<g id="Layer_7">
</g>
<g id="Layer_8">
	<g>
		<path fill="#0C3744" d="M466.883,93.068h2.284v39.812h-2.284v-14.685c0-2.391-0.438-4.676-1.306-6.853
			c-0.872-2.172-1.744-3.916-2.61-5.221c-5.222-9.57-12.563-17.239-22.027-23.006c-9.464-5.762-20.069-8.648-31.817-8.648
			c-7.617,0-14.848,1.361-21.7,4.079c-6.854,2.723-13.109,6.364-18.764,10.932c-2.611,2.396-4.682,5.17-6.201,8.321
			c-1.524,3.156-2.284,6.583-2.284,10.279c0,4.788,1.25,9.086,3.753,12.89c2.499,3.809,5.711,6.802,9.627,8.974l67.876,33.612
			c11.748,6.093,21.375,14.848,28.88,26.269c7.506,11.421,11.259,24.312,11.259,38.67c0,10.009-1.907,19.365-5.711,28.063
			c-3.809,8.704-8.974,16.316-15.501,22.844c-6.526,6.526-14.195,11.696-23.006,15.5c-8.811,3.809-18.224,5.711-28.228,5.711
			c-9.789,0-19.039-1.846-27.737-5.548c-8.704-3.696-16.316-8.755-22.843-15.174c-6.527-6.414-11.697-13.977-15.501-22.68
			c-3.809-8.699-5.823-17.948-6.037-27.738v-0.652v-0.326c0-6.308,2.229-11.636,6.689-15.99c4.457-4.35,9.841-6.526,16.153-6.526
			c6.308,0,11.692,2.233,16.153,6.689c4.456,4.461,6.689,9.846,6.689,16.153c0,6.313-2.233,11.696-6.689,16.153
			c-4.461,4.461-9.846,6.689-16.153,6.689c-4.135,0-7.888-0.979-11.258-2.937c-3.376-1.958-6.037-4.569-7.995-7.832
			c1.52,8.271,4.349,15.883,8.484,22.843c4.13,6.965,9.244,13.002,15.337,18.111c6.089,5.114,12.941,9.137,20.56,12.074
			c7.612,2.937,15.663,4.405,24.147,4.405c10.876,0,20.937-2.284,30.186-6.853c9.244-4.569,17.021-10.657,23.333-18.274
			c4.349-5.002,6.526-10.983,6.526-17.948c0-5.655-1.418-10.657-4.242-15.012c-2.83-4.349-6.526-7.72-11.096-10.116l-73.098-36.222
			l-0.326-0.326c-10.442-5.221-18.927-12.941-25.453-23.169c-6.526-10.223-9.79-21.645-9.79-34.264
			c0-8.699,1.683-16.969,5.058-24.801c3.371-7.832,7.939-14.628,13.706-20.396c5.762-5.762,12.508-10.33,20.232-13.706
			c7.72-3.37,16.041-5.058,24.964-5.058c11.31,0,21.646,2.611,31.002,7.832c9.351,5.221,16.856,12.186,22.517,20.885
			c0.652,1.091,1.52,1.469,2.61,1.142c1.086-0.326,1.632-1.142,1.632-2.447V93.068z"/>
	</g>
</g>
</svg>
