<?xml version="1.0" encoding="iso-8859-1"?>
<!-- Generator: Adobe Illustrator 19.0.0, SVG Export Plug-In . SVG Version: 6.00 Build 0)  -->
<svg version="1.1" id="Layer_1" xmlns="http://www.w3.org/2000/svg" xmlns:xlink="http://www.w3.org/1999/xlink" x="0px" y="0px"
	 viewBox="0 0 512 512" style="enable-background:new 0 0 512 512;" xml:space="preserve">
<path style="fill:#F3705A;" d="M449.067,203.733h-115.2l12.8,90.667c7.467,54.4-35.2,103.467-89.6,103.467l0,0
	c-55.467,0-97.067-49.067-89.6-103.467l12.8-90.667H62.933L52.267,278.4C36.267,402.133,131.2,512,256,512l0,0
	c124.8,0,219.733-109.867,203.733-232.533L449.067,203.733z"/>
<g>
	<polygon style="fill:#E8EAE9;" points="450.133,208 438.4,125.867 323.2,125.867 333.867,208 	"/>
	<polygon style="fill:#E8EAE9;" points="178.133,208 188.8,125.867 73.6,125.867 61.867,208 	"/>
</g>
<polygon style="fill:#FFD15C;" points="232.533,176 248.533,101.333 214.4,101.333 279.467,0 263.467,74.667 297.6,74.667 "/>
<g>
</g>
<g>
</g>
<g>
</g>
<g>
</g>
<g>
</g>
<g>
</g>
<g>
</g>
<g>
</g>
<g>
</g>
<g>
</g>
<g>
</g>
<g>
</g>
<g>
</g>
<g>
</g>
<g>
</g>
</svg>
