<?xml version="1.0" encoding="utf-8"?>
<!-- Generator: Adobe Illustrator 16.0.0, SVG Export Plug-In . SVG Version: 6.00 Build 0)  -->
<!DOCTYPE svg PUBLIC "-//W3C//DTD SVG 1.1//EN" "http://www.w3.org/Graphics/SVG/1.1/DTD/svg11.dtd">
<svg version="1.1" id="Layer_1" xmlns="http://www.w3.org/2000/svg" xmlns:xlink="http://www.w3.org/1999/xlink" x="0px" y="0px"
	 width="54px" height="54px" viewBox="279 369 54 54" enable-background="new 279 369 54 54" xml:space="preserve">
<path fill="#E2E8F0" d="M331.367,380.864h-15.135l1.681,11.913c0.981,7.148-4.624,13.594-11.772,13.594l0,0
	c-7.288,0-12.753-6.446-11.773-13.594l1.682-11.913h-15.417l-1.401,9.811c-2.102,16.257,10.371,30.692,26.769,30.692l0,0
	c16.397,0,28.872-14.436,26.769-30.552L331.367,380.864z"/>
<g>
	<polygon fill="#FFFFFF" points="331.509,381.424 329.965,370.633 314.83,370.633 316.233,381.424 	"/>
	<polygon fill="#FFFFFF" points="295.77,381.424 297.171,370.633 282.035,370.633 280.494,381.424 	"/>
</g>
</svg>
