<?xml version="1.0" encoding="utf-8"?>
<!-- Generator: Adobe Illustrator 16.0.0, SVG Export Plug-In . SVG Version: 6.00 Build 0)  -->
<!DOCTYPE svg PUBLIC "-//W3C//DTD SVG 1.1//EN" "http://www.w3.org/Graphics/SVG/1.1/DTD/svg11.dtd">
<svg version="1.1" id="Layer_1" xmlns="http://www.w3.org/2000/svg" xmlns:xlink="http://www.w3.org/1999/xlink" x="0px" y="0px"
	 width="600px" height="400px" viewBox="0 0 600 400" enable-background="new 0 0 600 400" xml:space="preserve">
<g id="Layer_2" display="none">
	<g display="inline">
		<path fill="#07737C" d="M571.066,236.29c-10.484,57.679-45.806,103.92-109.29,124.274c-62.959,20.185-118.463,3.84-164.54-43.142
			c-10.829-11.047-19.21-24.468-29.076-36.503c-4.581-5.585-9.512-11.113-15.174-15.531c-13.469-10.5-28.756-10.981-44.4-5.813
			c-13.306,4.395-26.291,9.805-39.696,13.852c-71.232,21.5-138.646-33.945-131.391-107.85
			c6.164-62.789,73.357-105.352,132.821-82.83c16.694,6.324,31.484,17.694,47.099,26.832c3.58,2.095,6.842,4.74,10.446,6.78
			c20.315,11.502,38.119,9.601,56.047-5.532c13.675-11.542,26.791-23.954,41.48-34.054C406.11,21.276,519.938,54.642,559,144.401
			C570.824,171.575,575.068,199.524,571.066,236.29z"/>
	</g>
</g>
<g id="Layer_1_1_" display="none">
	<g display="inline">
		<g>
			<path fill="#00A7C0" d="M589.558,195.359c-3.639,63.665-35.611,118.29-101.438,148.719
				c-65.281,30.172-127.379,19.919-183.378-24.666c-13.163-10.48-23.997-23.855-36.253-35.534
				c-5.688-5.419-11.747-10.731-18.448-14.746c-15.938-9.543-32.506-8.028-48.708-0.364c-13.779,6.517-27.078,14.088-41.012,20.24
				C86.284,321.703,6.122,270.822,4.113,190.073C2.408,121.465,69.281,66.567,136.477,82.963
				c18.864,4.604,36.346,14.91,54.419,22.695c4.144,1.785,8.018,4.206,12.182,5.929c23.464,9.712,42.431,5.289,59.769-13.436
				c13.227-14.281,25.735-29.428,40.248-42.288c79.752-70.662,207.08-49.799,261.204,41.902
				C580.68,125.525,588.983,155.135,589.558,195.359z"/>
		</g>
	</g>
</g>
<path fill="#F3705A" d="M254.736,23.232v107.06l84.261-11.896c50.555-6.94,96.154,32.713,96.154,83.269l0,0
	c0,51.548-45.6,90.207-96.154,83.269l-84.261-11.896v109.043l69.391,9.912c114.99,14.869,217.093-73.354,217.093-189.337l0,0
	c0-115.981-102.103-204.206-216.102-189.336L254.736,23.232z"/>
<g id="Layer_1_copy" display="none">
	<g display="inline">
		<g>
			<path fill="#008B99" d="M562.014,194.768c-3.371,58.916-32.951,109.444-93.854,137.604
				c-60.389,27.915-117.859,18.427-169.672-22.823c-12.177-9.681-22.201-22.064-33.54-32.88c-5.26-5.003-10.868-9.928-17.062-13.642
				c-14.757-8.82-30.086-7.43-45.072-0.327c-12.752,6.017-25.049,13.022-37.951,18.714
				c-68.502,30.255-142.667-16.822-144.523-91.528c-1.58-63.479,60.296-114.273,122.469-99.103
				c17.454,4.256,33.63,13.788,50.345,20.994c3.837,1.656,7.416,3.894,11.276,5.484c21.711,8.99,39.252,4.9,55.301-12.432
				c12.238-13.213,23.813-27.228,37.235-39.125c73.803-65.377,191.605-46.073,241.674,38.777
				C553.813,130.165,561.482,157.555,562.014,194.768z"/>
		</g>
	</g>
</g>
<g id="Layer_7">
</g>
<g>
	<polygon fill="#E8EAE9" points="258.702,22.242 182.372,33.146 182.372,140.206 258.702,130.292 	"/>
	<polygon fill="#E8EAE9" points="258.702,275.021 182.372,265.108 182.372,372.168 258.702,383.072 	"/>
</g>
<polygon fill="#FFD15C" points="163.564,224.465 94.173,209.595 94.173,241.316 0,180.848 69.391,195.716 69.391,163.996 "/>
<polygon fill="#FFD15C" points="163.564,91.693 94.173,76.823 94.173,108.545 0,48.076 69.391,62.945 69.391,31.224 "/>
<polygon fill="#FFD15C" points="163.564,345.898 94.173,331.028 94.173,362.75 0,302.281 69.391,317.15 69.391,285.43 "/>
</svg>
